<?xml version="1.0" encoding="UTF-8" standalone="no"?>
<svg
   width="20"
   height="14"
   viewBox="0 0 20 14"
   fill="none"
   version="1.1"
   id="svg338"
   sodipodi:docname="arrow-right.svg"
   inkscape:version="1.2 (1:1.2.1+202207142221+cd75a1ee6d)"
   xmlns:inkscape="http://www.inkscape.org/namespaces/inkscape"
   xmlns:sodipodi="http://sodipodi.sourceforge.net/DTD/sodipodi-0.dtd"
   xmlns="http://www.w3.org/2000/svg"
   xmlns:svg="http://www.w3.org/2000/svg">
  <defs
     id="defs342" />
  <sodipodi:namedview
     id="namedview340"
     pagecolor="#ffffff"
     bordercolor="#000000"
     borderopacity="0.25"
     inkscape:showpageshadow="2"
     inkscape:pageopacity="0.0"
     inkscape:pagecheckerboard="0"
     inkscape:deskcolor="#d1d1d1"
     showgrid="false"
     inkscape:lockguides="true"
     inkscape:zoom="30.357143"
     inkscape:cx="15.350588"
     inkscape:cy="7.0329412"
     inkscape:window-width="1846"
     inkscape:window-height="1016"
     inkscape:window-x="74"
     inkscape:window-y="27"
     inkscape:window-maximized="1"
     inkscape:current-layer="svg338" />
  <path
     style="color:#000000;fill:#797979;stroke-linecap:round;stroke-linejoin:round;stroke-miterlimit:10;-inkscape-stroke:none"
     d="m 12.429688,0.1796875 a 0.75,0.75 0 0 0 -0.529297,0.22070313 0.75,0.75 0 0 0 0,1.06054687 L 17.439453,7 11.900391,12.539063 a 0.75,0.75 0 0 0 0,1.060546 0.75,0.75 0 0 0 1.060547,0 l 6.068359,-6.0703121 a 0.750075,0.750075 0 0 0 0,-1.0605469 L 12.960938,0.40039063 A 0.75,0.75 0 0 0 12.429688,0.1796875 Z"
     id="path334" />
  <path
     style="color:#000000;fill:#797979;stroke-linecap:round;stroke-linejoin:round;stroke-miterlimit:10;-inkscape-stroke:none"
     d="M 1.5,6.25 A 0.75,0.75 0 0 0 0.75,7 0.75,0.75 0 0 0 1.5,7.75 h 16.830078 a 0.75,0.75 0 0 0 0.75,-0.75 0.75,0.75 0 0 0 -0.75,-0.75 z"
     id="path336" />
</svg>
