<?xml version="1.0" encoding="UTF-8" standalone="no"?>
<svg
   width="22"
   height="22"
   viewBox="0 0 22 22"
   fill="none"
   version="1.1"
   id="svg120"
   sodipodi:docname="document-favorite.svg"
   inkscape:version="1.2 (1:1.2.1+202207142221+cd75a1ee6d)"
   xmlns:inkscape="http://www.inkscape.org/namespaces/inkscape"
   xmlns:sodipodi="http://sodipodi.sourceforge.net/DTD/sodipodi-0.dtd"
   xmlns="http://www.w3.org/2000/svg"
   xmlns:svg="http://www.w3.org/2000/svg">
  <defs
     id="defs124" />
  <sodipodi:namedview
     id="namedview122"
     pagecolor="#ffffff"
     bordercolor="#000000"
     borderopacity="0.25"
     inkscape:showpageshadow="2"
     inkscape:pageopacity="0.0"
     inkscape:pagecheckerboard="0"
     inkscape:deskcolor="#d1d1d1"
     showgrid="false"
     inkscape:zoom="38.636364"
     inkscape:cx="11"
     inkscape:cy="11"
     inkscape:window-width="1920"
     inkscape:window-height="1043"
     inkscape:window-x="1920"
     inkscape:window-y="0"
     inkscape:window-maximized="1"
     inkscape:current-layer="svg120" />
  <path
     style="color:#000000;fill:#797979;stroke-linecap:round;stroke-linejoin:round;-inkscape-stroke:none"
     d="M 8,0.25 C 5.4000026,0.25 3.4151672,0.77233277 2.09375,2.09375 0.77233277,3.4151672 0.25,5.4000026 0.25,8 v 6 c 0,2.599997 0.52233277,4.584833 1.84375,5.90625 C 3.4151672,21.227667 5.4000026,21.75 8,21.75 h 6 c 2.599997,0 4.584833,-0.522333 5.90625,-1.84375 C 21.227667,18.584833 21.75,16.599997 21.75,14 V 9 A 0.75,0.75 0 0 0 21,8.25 0.75,0.75 0 0 0 20.25,9 v 5 c 0,2.399998 -0.477669,3.915169 -1.40625,4.84375 C 17.915169,19.772331 16.399998,20.25 14,20.25 H 8 C 5.6000024,20.25 4.0848305,19.772331 3.15625,18.84375 2.2276695,17.915169 1.75,16.399998 1.75,14 V 8 C 1.75,5.6000024 2.2276695,4.0848305 3.15625,3.15625 4.0848305,2.2276695 5.6000024,1.75 8,1.75 h 5 A 0.75,0.75 0 0 0 13.75,1 0.75,0.75 0 0 0 13,0.25 Z"
     id="path114" />
  <path
     style="color:#000000;fill:#797979;stroke-linecap:round;stroke-linejoin:round;-inkscape-stroke:none"
     d="M 12.712891,0.30664063 A 0.750075,0.750075 0 0 0 12.25,1 v 4 c 0,1.5833317 0.256619,2.8191188 1.09375,3.65625 C 14.180881,9.4933812 15.416668,9.75 17,9.75 h 4 a 0.750075,0.750075 0 0 0 0.53125,-1.28125 l -8,-8 A 0.750075,0.750075 0 0 0 12.712891,0.30664063 Z M 13.75,2.8125 19.1875,8.25 H 17 C 15.583335,8.25 14.819118,8.0066176 14.40625,7.59375 13.993382,7.1808824 13.75,6.4166653 13.75,5 Z"
     id="path116" />
  <path
     style="color:#000000;fill:#797979;stroke-linecap:round;stroke-linejoin:round;-inkscape-stroke:none"
     d="m 8.9453125,11.337891 c -0.20794,0.05862 -0.3518802,0.268521 -0.5371094,0.392578 C 7.827328,11.346033 7.1488859,11.167724 6.5234375,11.365234 a 0.750075,0.750075 0 0 0 -0.00586,0.002 c -0.7641739,0.249963 -1.2999506,0.849728 -1.5566406,1.511718 -0.25669,0.66199 -0.2732082,1.398029 -0.054687,2.080078 a 0.750075,0.750075 0 0 0 0,0.002 c 0.3287406,1.017235 1.0205539,1.745276 1.6835937,2.226562 0.33152,0.240643 0.6584911,0.422883 0.9550782,0.550781 0.296587,0.127899 0.5247163,0.214073 0.8496094,0.220703 a 0.750075,0.750075 0 0 0 0.015625,0.002 c 0.3374996,0 0.5701197,-0.09014 0.8710937,-0.21875 0.300974,-0.128608 0.6311021,-0.312558 0.964844,-0.554687 0.667483,-0.484259 1.361113,-1.216187 1.679687,-2.234375 0.210868,-0.678731 0.196143,-1.412229 -0.06055,-2.074219 -0.25669,-0.66199 -0.795912,-1.262654 -1.564453,-1.511718 a 0.750075,0.750075 0 0 0 -0.002,-0.002 C 9.8783678,11.230079 9.3964726,11.210711 8.9453125,11.337891 Z m -1.9648438,1.457031 c 0.2870656,-0.08905 0.6368762,-0.01766 0.8183594,0.238281 a 0.750075,0.750075 0 0 0 1.2402344,-0.02539 c 0.1530603,-0.235796 0.521763,-0.30258 0.8007813,-0.212891 0.3097492,0.10129 0.5020742,0.309933 0.6250002,0.626953 0.123309,0.318009 0.138428,0.73467 0.0293,1.085938 -0.191709,0.611125 -0.6493074,1.118847 -1.1289066,1.466796 -0.2400003,0.17412 -0.4826208,0.305015 -0.6738281,0.386719 -0.1860702,0.07951 -0.3448652,0.09677 -0.2734375,0.09766 0.064803,4.63e-4 -0.094627,-0.01997 -0.2792969,-0.09961 C 7.9490094,16.277586 7.7091826,16.147716 7.4707031,15.974609 6.9941404,15.628683 6.5355033,15.124005 6.3339844,14.501953 6.2225054,14.154004 6.2360654,13.739884 6.359375,13.421875 6.4822999,13.104858 6.6762884,12.895332 6.9804687,12.794922 Z"
     id="path118" />
</svg>
