<?xml version="1.0" encoding="UTF-8" standalone="no"?>
<svg
   width="22"
   height="22"
   viewBox="0 0 22 22"
   fill="none"
   version="1.1"
   id="svg206"
   sodipodi:docname="document-text.svg"
   inkscape:version="1.2 (1:1.2.1+202207142221+cd75a1ee6d)"
   xmlns:inkscape="http://www.inkscape.org/namespaces/inkscape"
   xmlns:sodipodi="http://sodipodi.sourceforge.net/DTD/sodipodi-0.dtd"
   xmlns="http://www.w3.org/2000/svg"
   xmlns:svg="http://www.w3.org/2000/svg">
  <defs
     id="defs210" />
  <sodipodi:namedview
     id="namedview208"
     pagecolor="#ffffff"
     bordercolor="#000000"
     borderopacity="0.25"
     inkscape:showpageshadow="2"
     inkscape:pageopacity="0.0"
     inkscape:pagecheckerboard="0"
     inkscape:deskcolor="#d1d1d1"
     showgrid="false"
     inkscape:zoom="38.636364"
     inkscape:cx="11"
     inkscape:cy="11"
     inkscape:window-width="1920"
     inkscape:window-height="1043"
     inkscape:window-x="1920"
     inkscape:window-y="0"
     inkscape:window-maximized="1"
     inkscape:current-layer="svg206" />
  <path
     style="color:#000000;fill:#797979;stroke-linecap:round;stroke-linejoin:round;-inkscape-stroke:none"
     d="M 8,0.25 C 5.4000026,0.25 3.4151672,0.77233277 2.09375,2.09375 0.77233277,3.4151672 0.25,5.4000026 0.25,8 v 6 c 0,2.599997 0.52233277,4.584833 1.84375,5.90625 C 3.4151672,21.227667 5.4000026,21.75 8,21.75 h 6 c 2.599997,0 4.584833,-0.522333 5.90625,-1.84375 C 21.227667,18.584833 21.75,16.599997 21.75,14 V 9 A 0.75,0.75 0 0 0 21,8.25 0.75,0.75 0 0 0 20.25,9 v 5 c 0,2.399998 -0.477669,3.915169 -1.40625,4.84375 C 17.915169,19.772331 16.399998,20.25 14,20.25 H 8 C 5.6000024,20.25 4.0848305,19.772331 3.15625,18.84375 2.2276695,17.915169 1.75,16.399998 1.75,14 V 8 C 1.75,5.6000024 2.2276695,4.0848305 3.15625,3.15625 4.0848305,2.2276695 5.6000024,1.75 8,1.75 h 5 A 0.75,0.75 0 0 0 13.75,1 0.75,0.75 0 0 0 13,0.25 Z"
     id="path198" />
  <path
     style="color:#000000;fill:#797979;stroke-linecap:round;stroke-linejoin:round;-inkscape-stroke:none"
     d="M 12.712891,0.30664063 A 0.750075,0.750075 0 0 0 12.25,1 v 4 c 0,1.5833317 0.256619,2.8191188 1.09375,3.65625 C 14.180881,9.4933812 15.416668,9.75 17,9.75 h 4 a 0.750075,0.750075 0 0 0 0.53125,-1.28125 l -8,-8 A 0.750075,0.750075 0 0 0 12.712891,0.30664063 Z M 13.75,2.8125 19.1875,8.25 H 17 C 15.583335,8.25 14.819118,8.0066176 14.40625,7.59375 13.993382,7.1808824 13.75,6.4166653 13.75,5 Z"
     id="path200" />
  <path
     style="color:#000000;fill:#797979;stroke-linecap:round;stroke-linejoin:round;-inkscape-stroke:none"
     d="M 6,11.25 A 0.75,0.75 0 0 0 5.25,12 0.75,0.75 0 0 0 6,12.75 h 6 A 0.75,0.75 0 0 0 12.75,12 0.75,0.75 0 0 0 12,11.25 Z"
     id="path202" />
  <path
     style="color:#000000;fill:#797979;stroke-linecap:round;stroke-linejoin:round;-inkscape-stroke:none"
     d="M 6,15.25 A 0.75,0.75 0 0 0 5.25,16 0.75,0.75 0 0 0 6,16.75 h 4 A 0.75,0.75 0 0 0 10.75,16 0.75,0.75 0 0 0 10,15.25 Z"
     id="path204" />
</svg>
