<?xml version="1.0" encoding="UTF-8" standalone="no"?>
<svg
   width="24"
   height="24"
   viewBox="0 0 24 24"
   fill="none"
   version="1.1"
   id="svg237"
   sodipodi:docname="home.svg"
   inkscape:version="1.2 (1:1.2.1+202207142221+cd75a1ee6d)"
   xmlns:inkscape="http://www.inkscape.org/namespaces/inkscape"
   xmlns:sodipodi="http://sodipodi.sourceforge.net/DTD/sodipodi-0.dtd"
   xmlns="http://www.w3.org/2000/svg"
   xmlns:svg="http://www.w3.org/2000/svg">
  <defs
     id="defs241" />
  <sodipodi:namedview
     id="namedview239"
     pagecolor="#ffffff"
     bordercolor="#000000"
     borderopacity="0.25"
     inkscape:showpageshadow="2"
     inkscape:pageopacity="0.0"
     inkscape:pagecheckerboard="0"
     inkscape:deskcolor="#d1d1d1"
     showgrid="false"
     inkscape:zoom="35.416667"
     inkscape:cx="12"
     inkscape:cy="12"
     inkscape:window-width="1920"
     inkscape:window-height="1043"
     inkscape:window-x="1920"
     inkscape:window-y="0"
     inkscape:window-maximized="1"
     inkscape:current-layer="svg237" />
  <g
     id="path235">
    <path
       style="color:#000000;fill:#ffffff;stroke-width:1.5;-inkscape-stroke:none"
       d="m 20.4699,6.20541 2e-4,1e-4 c 0.6711,0.46981 1.2359,1.18067 1.6322,1.93984 0.3964,0.75918 0.6577,1.63069 0.6577,2.45455 v 6.78 c 0,2.9643 -2.4058,5.37 -5.37,5.37 H 6.60999 c -2.96632,0 -5.37,-2.4179 -5.37,-5.38 v -6.9 c 0,-0.7733 0.23817,-1.60219 0.59714,-2.33126 0.35914,-0.72941 0.87117,-1.4239 1.48142,-1.89995 6e-5,-5e-5 1.1e-4,-9e-5 1.7e-4,-1.3e-4 L 8.32856,2.32869 8.33062,2.32708 v 0 C 10.1003,0.955859 12.8707,0.887072 14.7099,2.17541 Z m 0,0 -5.7596,-4.02971 z"
       id="path245" />
    <path
       style="color:#000000;fill:#797979;-inkscape-stroke:none"
       d="M 11.476563,0.48632813 C 10.184201,0.5174379 8.9009173,0.9364253 7.8710937,1.734375 h -0.00195 l -0.00195,0.00391 -5.0097656,3.9082032 c -0.00114,8.863e-4 -8.178e-4,0.00302 -0.00195,0.00391 C 2.1283678,6.2186474 1.5640296,6.9943112 1.1640625,7.8066406 0.76365473,8.619871 0.49023438,9.5434082 0.49023438,10.470703 v 6.898438 C 0.49023438,20.736976 3.2354995,23.5 6.609375,23.5 h 10.78125 c 3.369989,0 6.119141,-2.749048 6.119141,-6.119141 v -6.78125 c 0,-0.9824414 -0.299379,-1.952719 -0.742188,-2.8007809 C 22.324881,6.9507768 21.700707,6.152066 20.900391,5.5917969 l -0.04492,-0.033203 -0.0078,-0.00391 -5.707031,-3.9941406 C 14.070953,0.81125405 12.768924,0.45521835 11.476563,0.48632813 Z m 0.03516,1.53515627 c 0.995056,-0.024004 1.998052,0.2285342 2.767578,0.7675781 l 0.002,0.00195 5.757812,4.0292969 c 0.541883,0.37935 1.048536,1.0015878 1.398438,1.671875 0.34999,0.6702966 0.572266,1.4421453 0.572266,2.1074215 v 6.78125 C 22.009766,19.939361 19.94903,22 17.390625,22 H 6.609375 C 4.0506164,22 1.9902344,19.925499 1.9902344,17.369141 v -6.898438 c 0,-0.6193034 0.2019997,-1.3550917 0.5195312,-1.9999999 0.3172681,-0.6443685 0.7765628,-1.2549713 1.2675782,-1.6386719 6.493e-4,-5.074e-4 0.0013,-0.00145 0.00195,-0.00195 l 0.00977,-0.00781 0.00977,-0.00781 4.9902344,-3.8945312 c 4.786e-4,-3.709e-4 0.00147,3.706e-4 0.00195,0 l 0.00195,-0.00195 C 9.5324536,2.3463792 10.518162,2.0454526 11.511719,2.0214844 Z"
       id="path247" />
  </g>
</svg>
