<?xml version="1.0" encoding="UTF-8" standalone="no"?>
<svg
   width="20"
   height="22"
   viewBox="0 0 20 22"
   fill="none"
   version="1.1"
   id="svg311"
   sodipodi:docname="location.svg"
   inkscape:version="1.2 (1:1.2.1+202207142221+cd75a1ee6d)"
   xmlns:inkscape="http://www.inkscape.org/namespaces/inkscape"
   xmlns:sodipodi="http://sodipodi.sourceforge.net/DTD/sodipodi-0.dtd"
   xmlns="http://www.w3.org/2000/svg"
   xmlns:svg="http://www.w3.org/2000/svg">
  <defs
     id="defs315" />
  <sodipodi:namedview
     id="namedview313"
     pagecolor="#ffffff"
     bordercolor="#000000"
     borderopacity="0.25"
     inkscape:showpageshadow="2"
     inkscape:pageopacity="0.0"
     inkscape:pagecheckerboard="0"
     inkscape:deskcolor="#d1d1d1"
     showgrid="false"
     inkscape:zoom="38.636364"
     inkscape:cx="9.9905882"
     inkscape:cy="11"
     inkscape:window-width="1920"
     inkscape:window-height="1043"
     inkscape:window-x="1920"
     inkscape:window-y="0"
     inkscape:window-maximized="1"
     inkscape:current-layer="svg311" />
  <path
     style="color:#000000;fill:#797979;-inkscape-stroke:none"
     d="m 10,5.4394531 c -2.1284571,0 -3.8710937,1.7426366 -3.8710938,3.8710938 0,2.1284801 1.742657,3.8691411 3.8710938,3.8691411 2.128429,0 3.869141,-1.740652 3.869141,-3.8691411 C 13.869141,7.182081 12.128449,5.4394531 10,5.4394531 Z m 0,1.5 c 1.317787,0 2.369141,1.0533031 2.369141,2.3710938 0,1.3178281 -1.051334,2.3691411 -2.369141,2.3691411 -1.3178197,0 -2.3710937,-1.051305 -2.3710938,-2.3691411 0,-1.3177995 1.0532944,-2.3710938 2.3710938,-2.3710938 z"
     id="path307" />
  <path
     style="color:#000000;fill:#797979;-inkscape-stroke:none"
     d="M 10.003906,0.25 C 6.0124824,0.24730219 1.951799,2.6507765 0.88867188,7.3242187 -0.3468167,12.781869 3.0236307,17.337666 5.8691406,20.080078 h 0.00195 c 2.3032158,2.211999 5.9535603,2.213321 8.2480473,0 2.855713,-2.74231 6.227632,-7.288649 4.992187,-12.7460936 C 18.053567,2.6604068 13.99533,0.25269781 10.003906,0.25 Z m 0,1.5 C 13.41,1.7523022 16.746201,3.6796019 17.648437,7.6660156 18.71299,12.368561 15.764359,16.422315 13.080078,19 11.354494,20.665489 8.6465255,20.667602 6.9101562,19 4.2356717,16.422417 1.2870594,12.358589 2.3515625,7.65625 3.2584334,3.669701 6.5978125,1.7476978 10.003906,1.75 Z"
     id="path309" />
</svg>
