<?xml version="1.0" encoding="UTF-8" standalone="no"?>
<svg
   width="22"
   height="22"
   viewBox="0 0 22 22"
   fill="none"
   version="1.1"
   id="svg460"
   sodipodi:docname="message.svg"
   inkscape:version="1.2 (1:1.2.1+202207142221+cd75a1ee6d)"
   xmlns:inkscape="http://www.inkscape.org/namespaces/inkscape"
   xmlns:sodipodi="http://sodipodi.sourceforge.net/DTD/sodipodi-0.dtd"
   xmlns="http://www.w3.org/2000/svg"
   xmlns:svg="http://www.w3.org/2000/svg">
  <defs
     id="defs464" />
  <sodipodi:namedview
     id="namedview462"
     pagecolor="#ffffff"
     bordercolor="#000000"
     borderopacity="0.25"
     inkscape:showpageshadow="2"
     inkscape:pageopacity="0.0"
     inkscape:pagecheckerboard="0"
     inkscape:deskcolor="#d1d1d1"
     showgrid="false"
     inkscape:zoom="38.636364"
     inkscape:cx="11"
     inkscape:cy="11"
     inkscape:window-width="1920"
     inkscape:window-height="1043"
     inkscape:window-x="1920"
     inkscape:window-y="0"
     inkscape:window-maximized="1"
     inkscape:current-layer="svg460" />
  <path
     style="color:#000000;fill:#797979;stroke-linecap:round;stroke-linejoin:round;stroke-miterlimit:10;-inkscape-stroke:none"
     d="M 7,0.25 C 4.8750021,0.25 3.1455255,0.79197448 1.96875,1.96875 0.79197448,3.1455255 0.25,4.8750021 0.25,7 v 5 c 0,2.599997 0.5294216,4.36632 1.7558594,5.439453 C 3.2322972,18.512586 4.9375021,18.75 7,18.75 h 0.5 c -0.063333,0 0.2423987,0.159226 0.1933594,0.0918 a 0.750075,0.750075 0 0 0 0.00586,0.0078 l 1.5000001,2 C 9.6470365,21.4467 10.312127,21.810547 11,21.810547 c 0.687873,0 1.352964,-0.363847 1.800781,-0.960938 l 1.498047,-1.996093 C 14.346393,18.792042 14.432455,18.75 14.5,18.75 H 15 c 2.124998,0 3.854474,-0.541974 5.03125,-1.71875 C 21.208026,15.854474 21.75,14.124998 21.75,12 V 7 C 21.75,4.8750021 21.208026,3.1455255 20.03125,1.96875 18.854474,0.79197448 17.124998,0.25 15,0.25 Z m 0,1.5 h 8 c 1.874998,0 3.145528,0.4580275 3.96875,1.28125 C 19.791972,3.8544725 20.25,5.1250019 20.25,7 v 5 c 0,1.874998 -0.458028,3.145528 -1.28125,3.96875 C 18.145528,16.791972 16.874998,17.25 15,17.25 h -0.5 c -0.551935,0 -1.063805,0.257577 -1.396484,0.695312 a 0.750075,0.750075 0 0 0 -0.0039,0.0039 l -1.5,2 C 11.387428,20.232128 11.182126,20.310547 11,20.310547 c -0.182126,0 -0.387428,-0.07842 -0.599609,-0.361328 L 8.90625,17.958984 C 8.537211,17.451556 8.1033327,17.25 7.5,17.25 H 7 C 5.0625019,17.25 3.7677008,16.987412 2.9941406,16.310547 2.2205804,15.633682 1.75,14.399998 1.75,12 V 7 C 1.75,5.1250019 2.2080275,3.8544725 3.03125,3.03125 3.8544725,2.2080275 5.1250019,1.75 7,1.75 Z"
     id="path452" />
  <path
     style="color:#000000;fill:#797979;stroke-linecap:round;stroke-linejoin:round;-inkscape-stroke:none"
     d="m 14.996094,9 a 1,1 0 0 0 -1,1 1,1 0 0 0 1,1 h 0.0098 a 1,1 0 0 0 1,-1 1,1 0 0 0 -1,-1 z"
     id="path454" />
  <path
     style="color:#000000;fill:#797979;stroke-linecap:round;stroke-linejoin:round;-inkscape-stroke:none"
     d="m 10.996094,9 a 1,1 0 0 0 -1.0000002,1 1,1 0 0 0 1.0000002,1 h 0.0078 a 1,1 0 0 0 1,-1 1,1 0 0 0 -1,-1 z"
     id="path456" />
  <path
     style="color:#000000;fill:#797979;stroke-linecap:round;stroke-linejoin:round;-inkscape-stroke:none"
     d="m 6.9941406,9 a 1,1 0 0 0 -1,1 1,1 0 0 0 1,1 h 0.00977 A 1,1 0 0 0 8.0039063,10 1,1 0 0 0 7.0039062,9 Z"
     id="path458" />
</svg>
