<?xml version="1.0" encoding="UTF-8" standalone="no"?>
<svg
   width="16"
   height="22"
   viewBox="0 0 16 22"
   fill="none"
   version="1.1"
   id="svg551"
   sodipodi:docname="profile.svg"
   inkscape:version="1.2 (1:1.2.1+202207142221+cd75a1ee6d)"
   xmlns:inkscape="http://www.inkscape.org/namespaces/inkscape"
   xmlns:sodipodi="http://sodipodi.sourceforge.net/DTD/sodipodi-0.dtd"
   xmlns="http://www.w3.org/2000/svg"
   xmlns:svg="http://www.w3.org/2000/svg">
  <defs
     id="defs555" />
  <sodipodi:namedview
     id="namedview553"
     pagecolor="#ffffff"
     bordercolor="#000000"
     borderopacity="0.25"
     inkscape:showpageshadow="2"
     inkscape:pageopacity="0.0"
     inkscape:pagecheckerboard="0"
     inkscape:deskcolor="#d1d1d1"
     showgrid="false"
     inkscape:zoom="38.636364"
     inkscape:cx="7.9976471"
     inkscape:cy="11"
     inkscape:window-width="1920"
     inkscape:window-height="1043"
     inkscape:window-x="1920"
     inkscape:window-y="0"
     inkscape:window-maximized="1"
     inkscape:current-layer="svg551" />
  <path
     style="color:#000000;fill:#797979;stroke-linecap:round;stroke-linejoin:round;-inkscape-stroke:none"
     d="m 8,0.25 c -2.8644687,0 -5.1894531,2.3353743 -5.1894531,5.1894531 0,2.7937472 2.2184968,5.0863889 4.9941406,5.1796879 a 0.750075,0.750075 0 0 0 0.09375,-0.002 c 0.061022,-0.0055 0.1466112,-0.0041 0.1875,0 a 0.750075,0.750075 0 0 0 0.099609,0.002 C 10.961224,10.525842 13.17782,8.2354037 13.189453,5.4433594 a 0.750075,0.750075 0 0 0 0,-0.00391 C 13.189453,2.5833335 10.856153,0.25 8,0.25 Z m 0,1.5 c 2.043922,0 3.689453,1.6455776 3.689453,3.6894531 -0.0094,2.0070171 -1.57095,3.6149615 -3.5546874,3.6816407 l 0.099609,0.00195 c -0.159111,-0.015911 -0.3136781,-0.014453 -0.4726563,0 l 0.09375,-0.00195 C 5.8711174,9.0543929 4.3105469,7.4457011 4.3105469,5.4394531 4.3105469,3.3935368 5.9444736,1.75 8,1.75 Z"
     id="path547" />
  <path
     style="color:#000000;fill:#797979;stroke-linecap:round;stroke-linejoin:round;-inkscape-stroke:none"
     d="m 8.171875,11.40625 c -1.9440332,4.8e-5 -3.8889728,0.510326 -5.4257812,1.529297 a 0.750075,0.750075 0 0 0 -0.00391,0.002 c -1.366498,0.914765 -2.14648437,2.212427 -2.14648438,3.560547 10e-9,1.348119 0.78104118,2.646925 2.14843748,3.55664 3.065034,2.049335 7.7794754,2.048326 10.8437504,-0.002 1.3665,-0.914764 2.146484,-2.212427 2.146484,-3.560547 0,-1.348119 -0.781039,-2.646924 -2.148437,-3.55664 -1.528045,-1.020555 -3.47003,-1.529345 -5.414063,-1.529297 z m 0,1.5625 c 1.6859582,4.8e-5 3.370078,0.405401 4.582031,1.214844 1.052599,0.700282 1.480469,1.529216 1.480469,2.308593 0,0.779378 -0.426972,1.60922 -1.480469,2.314454 -2.435014,1.629245 -6.7407671,1.629245 -9.175781,0 a 0.750075,0.750075 0 0 0 -0.00195,-0.002 c -1.0525963,-0.700282 -1.4804688,-1.527262 -1.4804688,-2.30664 0,-0.77837 0.4280001,-1.607855 1.4785157,-2.3125 1.2231887,-0.811027 2.911698,-1.216845 4.5976562,-1.216797 z"
     id="path549" />
</svg>
