<svg width="17" height="15" viewBox="0 0 17 15" fill="none" xmlns="http://www.w3.org/2000/svg">
<path d="M5.6667 2.58545C5.63906 2.55803 5.63905 2.55803 5.61141 2.53061C5.4732 2.39351 5.41792 2.33867 5.41792 2.22899C5.41792 2.0919 5.4732 2.06448 5.61141 1.92738C5.6667 1.87254 5.74962 1.79028 5.80491 1.73545C5.88784 1.62577 5.88784 1.48867 5.77727 1.40641C5.6667 1.32415 5.52849 1.32415 5.44556 1.43383C5.39027 1.48867 5.33499 1.54351 5.27971 1.59835C5.11385 1.76286 4.948 1.92738 4.948 2.25641C4.948 2.58545 5.11385 2.74996 5.27971 2.91448C5.30735 2.9419 5.30735 2.9419 5.33499 2.96932C5.50084 3.10641 5.61141 3.21609 5.61141 3.46286C5.61141 3.73706 5.4732 3.90157 5.30735 4.06609C5.27971 4.09351 5.27971 4.09351 5.25206 4.12093C5.16914 4.23061 5.16914 4.3677 5.27971 4.44996C5.33499 4.47738 5.39027 4.5048 5.44556 4.5048C5.50084 4.5048 5.58377 4.47738 5.63905 4.42254C5.6667 4.39512 5.6667 4.39512 5.69434 4.3677C5.88784 4.17577 6.13662 3.90157 6.13662 3.43545C6.10897 2.96932 5.86019 2.74996 5.6667 2.58545Z" fill="#A9A9A9" stroke="#A9A9A9" stroke-width="0.2"/>
<path d="M9.03901 1.51611C9.01137 1.48869 9.01137 1.48869 8.98373 1.46127C8.84552 1.32417 8.79023 1.26934 8.79023 1.15966C8.79023 1.02256 8.84552 0.995142 8.98373 0.858045C9.03901 0.803206 9.12194 0.720948 9.17722 0.666109C9.26015 0.556432 9.26015 0.419335 9.14958 0.337077C9.03901 0.254819 8.9008 0.254819 8.81787 0.364496C8.76259 0.419335 8.7073 0.474174 8.65202 0.529013C8.48617 0.693529 8.32031 0.858045 8.32031 1.18708C8.32031 1.51611 8.48617 1.68063 8.65202 1.84514C8.67966 1.87256 8.67966 1.87256 8.7073 1.89998C8.87316 2.03708 8.98373 2.14675 8.98373 2.39353C8.98373 2.66772 8.84552 2.83224 8.67966 2.99675C8.65202 3.02417 8.65202 3.02417 8.62438 3.05159C8.54145 3.16127 8.54145 3.29837 8.65202 3.38063C8.7073 3.40804 8.76259 3.43546 8.81787 3.43546C8.87316 3.43546 8.95608 3.40804 9.01137 3.35321C9.03901 3.32579 9.03901 3.32579 9.06665 3.29837C9.26015 3.10643 9.50893 2.83224 9.50893 2.36611C9.48129 1.89998 9.23251 1.68063 9.03901 1.51611Z" fill="#A9A9A9" stroke="#A9A9A9" stroke-width="0.2"/>
<path d="M12.4389 2.58545C12.4113 2.55803 12.4113 2.55803 12.3836 2.53061C12.2454 2.39351 12.1901 2.33867 12.1901 2.22899C12.1901 2.0919 12.2454 2.06448 12.3836 1.92738C12.4389 1.87254 12.5218 1.79028 12.5771 1.73545C12.6601 1.62577 12.6601 1.48867 12.5495 1.40641C12.4389 1.32415 12.3007 1.32415 12.2178 1.43383C12.1625 1.48867 12.1072 1.54351 12.0519 1.59835C11.8861 1.76286 11.7202 1.92738 11.7202 2.25641C11.7202 2.58545 11.8861 2.74996 12.0519 2.91448C12.0796 2.9419 12.0796 2.9419 12.1072 2.96932C12.2731 3.10641 12.3836 3.21609 12.3836 3.46286C12.3836 3.73706 12.2454 3.90157 12.0796 4.06609C12.0519 4.09351 12.0519 4.09351 12.0243 4.12093C11.9414 4.23061 11.9414 4.3677 12.0519 4.44996C12.1072 4.47738 12.1625 4.5048 12.2178 4.5048C12.2731 4.5048 12.356 4.47738 12.4113 4.42254C12.4389 4.39512 12.4389 4.39512 12.4666 4.3677C12.6601 4.17577 12.9088 3.90157 12.9088 3.43545C12.8535 2.96932 12.6048 2.74996 12.4389 2.58545Z" fill="#A9A9A9" stroke="#A9A9A9" stroke-width="0.2"/>
<path d="M16.8065 12.5661H0.995118C0.856907 12.5661 0.746338 12.6758 0.746338 12.8129V13.3887C0.746338 14.0193 1.27154 14.5403 1.90731 14.5403H15.8943C16.5301 14.5403 17.0553 14.0193 17.0553 13.3887V12.8129C17.0553 12.6758 16.9447 12.5661 16.8065 12.5661ZM16.5577 13.3887C16.5577 13.7726 16.2537 14.0742 15.8667 14.0742H1.90731C1.52032 14.0742 1.21626 13.7726 1.21626 13.3887V13.0596H16.5577V13.3887Z" fill="#A9A9A9" stroke="#A9A9A9" stroke-width="0.2"/>
<path d="M13.2958 7.41127C12.3283 6.47901 11.0844 5.90321 9.78525 5.71127L10.2552 5.24514C10.3934 5.10804 10.4487 4.88869 10.3657 4.69675C10.2828 4.50482 10.117 4.39514 9.89581 4.39514H7.90557C7.71207 4.39514 7.51858 4.50482 7.43565 4.69675C7.35273 4.88869 7.40801 5.08063 7.54622 5.24514L8.01614 5.71127C6.68931 5.90321 5.47305 6.47901 4.47793 7.41127C3.28931 8.53546 2.59825 10.0709 2.54297 11.6887C2.54297 11.8258 2.65354 11.9355 2.76411 11.9355C2.90232 11.9355 3.01289 11.8258 3.01289 11.7161C3.06817 10.208 3.70394 8.80966 4.80964 7.76772C5.8324 6.78063 7.15923 6.23224 8.54134 6.14998C8.56899 6.14998 8.59663 6.14998 8.62427 6.14998C8.65191 6.14998 8.67955 6.14998 8.7072 6.14998C8.73484 6.14998 8.73484 6.14998 8.76248 6.14998C8.79012 6.14998 8.84541 6.14998 8.87305 6.14998C8.90069 6.14998 8.95598 6.14998 8.98362 6.14998C9.01126 6.14998 9.01126 6.14998 9.0389 6.14998C9.06655 6.14998 9.09419 6.14998 9.12183 6.14998C9.14947 6.14998 9.17711 6.14998 9.20476 6.14998C10.6145 6.23224 11.9137 6.78063 12.9365 7.76772C14.0422 8.80966 14.6779 10.208 14.7332 11.7161C14.7332 11.8532 14.8438 11.9629 14.982 11.9355C15.1202 11.9355 15.2308 11.8258 15.2031 11.6887C15.1755 10.0435 14.4844 8.53546 13.2958 7.41127ZM9.14947 5.65643H9.12183C9.09419 5.65643 9.06655 5.65643 9.0389 5.65643C8.98362 5.65643 8.95598 5.65643 8.90069 5.65643C8.84541 5.65643 8.81777 5.65643 8.76248 5.65643C8.73484 5.65643 8.7072 5.65643 8.67955 5.65643H8.65191L7.90557 4.91611H9.89581L9.14947 5.65643Z" fill="#A9A9A9" stroke="#A9A9A9" stroke-width="0.2"/>
</svg>
