<svg width="20" height="20" viewBox="0 0 20 20" fill="none" xmlns="http://www.w3.org/2000/svg">
<path d="M19.3 5.57993H13.72C13.33 5.57993 13.02 5.26993 13.02 4.87993C13.02 4.48993 13.33 4.17993 13.72 4.17993H19.3C19.69 4.17993 20 4.48993 20 4.87993C20 5.26993 19.69 5.57993 19.3 5.57993Z" fill="#797979"/>
<path d="M4.42 5.57993H0.7C0.31 5.57993 0 5.26993 0 4.87993C0 4.48993 0.31 4.17993 0.7 4.17993H4.42C4.81 4.17993 5.12 4.48993 5.12 4.87993C5.12 5.26993 4.8 5.57993 4.42 5.57993Z" fill="#797979"/>
<path d="M8.13994 8.82993C10.3215 8.82993 12.0899 7.06146 12.0899 4.87993C12.0899 2.69841 10.3215 0.929932 8.13994 0.929932C5.95842 0.929932 4.18994 2.69841 4.18994 4.87993C4.18994 7.06146 5.95842 8.82993 8.13994 8.82993Z" fill="#797979"/>
<path d="M19.2999 15.8099H15.5799C15.1899 15.8099 14.8799 15.4999 14.8799 15.1099C14.8799 14.7199 15.1899 14.4099 15.5799 14.4099H19.2999C19.6899 14.4099 19.9999 14.7199 19.9999 15.1099C19.9999 15.4999 19.6899 15.8099 19.2999 15.8099Z" fill="#797979"/>
<path d="M6.28 15.8099H0.7C0.31 15.8099 0 15.4999 0 15.1099C0 14.7199 0.31 14.4099 0.7 14.4099H6.28C6.67 14.4099 6.98 14.7199 6.98 15.1099C6.98 15.4999 6.66 15.8099 6.28 15.8099Z" fill="#797979"/>
<path d="M11.8599 19.0699C14.0414 19.0699 15.8099 17.3014 15.8099 15.1199C15.8099 12.9384 14.0414 11.1699 11.8599 11.1699C9.67839 11.1699 7.90991 12.9384 7.90991 15.1199C7.90991 17.3014 9.67839 19.0699 11.8599 19.0699Z" fill="#797979"/>
</svg>
