<?xml version="1.0" encoding="UTF-8" standalone="no"?>
<svg
   width="21"
   height="16"
   viewBox="0 0 21 16"
   fill="none"
   version="1.1"
   id="svg753"
   sodipodi:docname="share.svg"
   inkscape:version="1.2 (1:1.2.1+202207142221+cd75a1ee6d)"
   xmlns:inkscape="http://www.inkscape.org/namespaces/inkscape"
   xmlns:sodipodi="http://sodipodi.sourceforge.net/DTD/sodipodi-0.dtd"
   xmlns="http://www.w3.org/2000/svg"
   xmlns:svg="http://www.w3.org/2000/svg">
  <defs
     id="defs757" />
  <sodipodi:namedview
     id="namedview755"
     pagecolor="#ffffff"
     bordercolor="#000000"
     borderopacity="0.25"
     inkscape:showpageshadow="2"
     inkscape:pageopacity="0.0"
     inkscape:pagecheckerboard="0"
     inkscape:deskcolor="#d1d1d1"
     showgrid="false"
     inkscape:zoom="53.125"
     inkscape:cx="10.503529"
     inkscape:cy="8"
     inkscape:window-width="1920"
     inkscape:window-height="1043"
     inkscape:window-x="1920"
     inkscape:window-y="0"
     inkscape:window-maximized="1"
     inkscape:current-layer="svg753" />
  <path
     style="color:#000000;fill:#797979;-inkscape-stroke:none"
     d="m 14.183594,-0.18164062 -0.480469,0.15039062 -0.06055,-0.02539062 -0.04687,0.02734374 -0.425781,-0.09374999 v 0.49609375 c -0.01754,0.0330197 -0.05209,0.0537323 -0.06836,0.0917969 C 13.03925,0.61060645 13,0.79138662 13,1 V 4 C 8.3067574,4 4.3046719,6.8920297 2.4003906,10.800781 1.7002005,12.101163 1.3025207,13.494764 1.0019531,14.896484 L 1,14.900391 l -0.001953,0.0059 c -0.0388138,0.20122 -0.001149,0.440987 0.12500002,0.628906 0.1261488,0.187919 0.3201428,0.309902 0.5273437,0.376953 0.4296671,0.139049 0.9637,0.0078 1.2441407,-0.404296 l 0.00391,-0.0059 0.00586,-0.0078 C 5.1035405,11.999645 8.7939613,9.6992188 13,9.6992188 V 13 c 0,0.208616 0.03926,0.389404 0.101563,0.535156 0.06091,0.142505 0.126544,0.242272 0.255859,0.34375 l -0.1875,0.22461 0.421875,-0.07813 0.05273,0.0293 0.228516,-0.0957 c 0.08793,-0.03723 0.157556,-0.0892 0.226562,-0.158203 l 6.603516,-6.003906 0.01367,-0.013672 C 20.916227,7.5726341 21,7.3065664 21,7 21,6.6934293 20.916227,6.4273659 20.716797,6.2167969 L 20.703125,6.203125 14.128906,0.22460938 Z m -0.251953,0.26367187 c 0.02697,0.01518442 0.05859,0.03125 0.05859,0.03125 l -0.0039,0.005859 c -0.01786,-0.0126416 -0.0357,-0.02634776 -0.05469,-0.03710937 z m -0.234375,0.38476563 0.04297,0.16210937 -0.0293,0.0585938 0.06641,0.24609375 -0.136719,-0.0996094 -0.01563,0.0292969 0.0059,-0.0351563 -0.0332,-0.0253906 0.05859,-0.31835938 0.02344,0.0820313 z M 14,1.4589844 19.990234,6.9042969 C 19.954804,6.8668876 20,6.9152311 20,7 c 0,0.084753 -0.0452,0.1331124 -0.0098,0.095703 L 14,12.541016 v -2.8417972 -1 h -1 c -4.5710125,0 -8.5781544,2.5066212 -10.9414062,6.2617192 l 0.00977,-0.01563 c -0.00825,0.01213 -0.029509,8.16e-4 -0.037109,0.0059 0.2859916,-1.296733 0.640711,-2.547146 1.2480469,-3.675781 l 0.00195,-0.002 0.00977,-0.01758 0.00781,-0.01758 0.00195,-0.002 C 5.0489521,7.650225 8.719382,5 13,5 h 1 V 4 Z m -0.369141,11.5937496 0.123047,0.103516 -0.06055,0.236328 0.07813,-0.222656 0.0078,0.0078 L 13.699219,13.5 c -6.47e-4,0 -0.0053,0 -0.0059,0 l -0.0098,-0.06641 -0.01367,0.05859 c 8.3e-5,2.39e-4 0.002,0.0078 0.002,0.0078 0,0 -0.002,0 -0.002,0 l -0.0039,0.0059 -0.0098,0.03516 -0.002,-0.02149 -0.0059,0.0059 0.0039,-0.01172 -0.01563,-0.115234 c 0.0094,0.02705 0.02491,0.07308 0.02734,0.08008 l 0.01953,-0.05274 z M 13.8125,13.203125 14.169922,13.5 c 0,0 -0.38986,10e-7 -0.458984,0 z"
     id="path751" />
</svg>
