<svg width="18" height="20" viewBox="0 0 18 20" fill="none" xmlns="http://www.w3.org/2000/svg">
<path d="M9.00008 2.6499C4.22008 2.6499 0.330078 6.5399 0.330078 11.3199C0.330078 16.0999 4.22008 19.9999 9.00008 19.9999C13.7801 19.9999 17.6701 16.1099 17.6701 11.3299C17.6701 6.5499 13.7801 2.6499 9.00008 2.6499ZM9.75008 10.9999C9.75008 11.4099 9.41008 11.7499 9.00008 11.7499C8.59008 11.7499 8.25008 11.4099 8.25008 10.9999V5.9999C8.25008 5.5899 8.59008 5.2499 9.00008 5.2499C9.41008 5.2499 9.75008 5.5899 9.75008 5.9999V10.9999Z" fill="#797979"/>
<path d="M11.8899 1.45H6.10989C5.70989 1.45 5.38989 1.13 5.38989 0.73C5.38989 0.33 5.70989 0 6.10989 0H11.8899C12.2899 0 12.6099 0.32 12.6099 0.72C12.6099 1.12 12.2899 1.45 11.8899 1.45Z" fill="#797979"/>
</svg>
