<svg width="20" height="22" viewBox="0 0 20 22" fill="none" xmlns="http://www.w3.org/2000/svg">
<path d="M10 21.75C4.76 21.75 0.5 17.49 0.5 12.25C0.5 7.01 4.76 2.75 10 2.75C15.24 2.75 19.5 7.01 19.5 12.25C19.5 17.49 15.24 21.75 10 21.75ZM10 4.25C5.59 4.25 2 7.84 2 12.25C2 16.66 5.59 20.25 10 20.25C14.41 20.25 18 16.66 18 12.25C18 7.84 14.41 4.25 10 4.25Z" fill="#797979"/>
<path d="M10 12.75C9.59 12.75 9.25 12.41 9.25 12V7C9.25 6.59 9.59 6.25 10 6.25C10.41 6.25 10.75 6.59 10.75 7V12C10.75 12.41 10.41 12.75 10 12.75Z" fill="#797979"/>
<path d="M13 1.75H7C6.59 1.75 6.25 1.41 6.25 1C6.25 0.59 6.59 0.25 7 0.25H13C13.41 0.25 13.75 0.59 13.75 1C13.75 1.41 13.41 1.75 13 1.75Z" fill="#797979"/>
</svg>
