<?xml version="1.0" encoding="UTF-8" standalone="no"?>
<svg
   width="18"
   height="22"
   viewBox="0 0 18 22"
   fill="none"
   version="1.1"
   id="svg941"
   sodipodi:docname="union-bold.svg"
   inkscape:version="1.2 (1:1.2.1+202207142221+cd75a1ee6d)"
   xmlns:inkscape="http://www.inkscape.org/namespaces/inkscape"
   xmlns:sodipodi="http://sodipodi.sourceforge.net/DTD/sodipodi-0.dtd"
   xmlns="http://www.w3.org/2000/svg"
   xmlns:svg="http://www.w3.org/2000/svg">
  <defs
     id="defs945" />
  <sodipodi:namedview
     id="namedview943"
     pagecolor="#ffffff"
     bordercolor="#000000"
     borderopacity="0.25"
     inkscape:showpageshadow="2"
     inkscape:pageopacity="0.0"
     inkscape:pagecheckerboard="0"
     inkscape:deskcolor="#d1d1d1"
     showgrid="false"
     inkscape:zoom="38.636364"
     inkscape:cx="9.0070588"
     inkscape:cy="11"
     inkscape:window-width="1920"
     inkscape:window-height="1043"
     inkscape:window-x="1920"
     inkscape:window-y="0"
     inkscape:window-maximized="1"
     inkscape:current-layer="svg941" />
  <path
     fill-rule="evenodd"
     clip-rule="evenodd"
     d="M8.97024 1.5C2.58324 1.5 1.50424 2.432 1.50424 9.929C1.50424 18.322 1.34724 20.5 2.94324 20.5C4.53824 20.5 7.14324 16.816 8.97024 16.816C10.7972 16.816 13.4022 20.5 14.9972 20.5C16.5932 20.5 16.4362 18.322 16.4362 9.929C16.4362 2.432 15.3572 1.5 8.97024 1.5Z"
     fill="#797979"
     id="path952" />
  <path
     fill-rule="evenodd"
     clip-rule="evenodd"
     d="m 8.6694562,0.69335787 c -1.60137,0 -2.93201,0.057084 -4.01146,0.27799 -1.093,0.22369003 -1.99382,0.62809003 -2.67059,1.36950003 -0.6688,0.73266 -1.04092003,1.70993 -1.25421003,2.92166 -0.212906,1.20957 -0.279744,2.72821 -0.279744,4.60985 0,0.7262001 -0.001232,1.4080001 -0.002388,2.0476001 v 0 c -0.005466,3.0247 -0.009225,5.1041 0.127152,6.4603 0.081368,0.8092 0.22168,1.496 0.53020003,1.9893 0.16592,0.2653 0.38627,0.4851 0.67238,0.6315 0.281,0.1438 0.57768,0.1923 0.86166,0.1923 0.64877,0 1.27785,-0.3569 1.78564,-0.7097 0.49571,-0.3444 1.01752,-0.7904 1.51098,-1.2121 l 0.11679,-0.0998 c 0.54492,-0.4651 1.05672,-0.8945 1.53701,-1.2098 0.49821,-0.3271 0.84842,-0.4526 1.07658,-0.4526 0.22816,0 0.57837,0.1255 1.07657,0.4526 0.4802998,0.3153 0.9920998,0.7447 1.5369998,1.2098 l 0.1168,0.0998 c 0.4935,0.4217 1.0153,0.8677 1.511,1.2121 0.5078,0.3528 1.1369,0.7097 1.7856,0.7097 0.284,0 0.5807,-0.0485 0.8617,-0.1923 0.2861,-0.1464 0.5064,-0.3662 0.6724,-0.6315 0.3085,-0.4933 0.4488,-1.1801 0.5302,-1.9893 0.1363,-1.3562 0.1326,-3.4356 0.1271,-6.4603 -0.0011,-0.6396 -0.0024,-1.3214 -0.0024,-2.0476001 0,-1.88164 -0.0668,-3.40028 -0.2797,-4.60985 -0.2133,-1.21173 -0.5854,-2.189 -1.2542,-2.92166 -0.6768,-0.74141 -1.5776,-1.14581 -2.6706,-1.36950003 -1.0795,-0.220906 -2.4101,-0.27799 -4.0114698,-0.27799 z m -6.716,9.17900003 c 0,-1.86686 0.06803,-3.27609 0.25703,-4.34981 0.18862,-1.07155 0.48544,-1.73297 0.88476,-2.17043 0.39135,-0.42872 0.95785,-0.72588 1.8635,-0.91122 0.91922,-0.18812 2.11858,-0.24754 3.71071,-0.24754 1.5921698,0 2.7914698,0.05942 3.7106698,0.24754 0.9057,0.18534 1.4722,0.4825 1.8635,0.91122 0.3994,0.43746 0.6962,1.09888 0.8848,2.17043 0.189,1.07372 0.257,2.48295 0.257,4.34981 0,0.7439001 0.0012,1.4367001 0.0023,2.0819001 0.0051,3.0258 0.0085,5.0031 -0.1195,6.2759 -0.0789,0.7845 -0.1986,1.1667 -0.3095,1.3441 -0.0438,0.07 -0.073,0.0859 -0.0838,0.0914 -0.0159,0.0082 -0.0635,0.0277 -0.1785,0.0277 -0.1487,0 -0.4434,-0.1036 -0.9297,-0.4415 -0.4311,-0.2996 -0.8976,-0.698 -1.4096,-1.1354 l -0.1003,-0.0855 c -0.534,-0.4559 -1.1157,-0.9475 -1.6876,-1.3229 -0.5539,-0.3637 -1.2144298,-0.6987 -1.8997698,-0.6987 -0.68534,0 -1.34588,0.335 -1.89981,0.6987 -0.57183,0.3754 -1.15352,0.867 -1.68761,1.3229 l -0.10024,0.0856 h -4e-5 c -0.51205,0.4373 -0.97844,0.8357 -1.40957,1.1353 -0.48634,0.3379 -0.78101,0.4415 -0.92973,0.4415 -0.11503,0 -0.16257,-0.0195 -0.17847,-0.0277 -0.01078,-0.0055 -0.04001,-0.0214 -0.08381,-0.0914 -0.11092,-0.1774 -0.23061,-0.5596 -0.30949,-1.3441 -0.12799,-1.2728 -0.12464,-3.2501 -0.1195,-6.2758 0.00109,-0.6452 0.00227,-1.3381 0.00227,-2.0820001 z m 3.28823,-2.4613 c -0.41422,0 -0.75,0.33578 -0.75,0.75 0,0.41421 0.33578,0.75 0.75,0.75 h 6.8550398 c 0.4142,0 0.75,-0.33579 0.75,-0.75 0,-0.41422 -0.3358,-0.75 -0.75,-0.75 z"
     fill="#ffffff"
     id="path955" />
</svg>
